<?xml version="1.0" encoding="utf-8"?>
<!-- Generator: Adobe Illustrator 17.0.0, SVG Export Plug-In . SVG Version: 6.00 Build 0)  -->
<!DOCTYPE svg PUBLIC "-//W3C//DTD SVG 1.1//EN" "http://www.w3.org/Graphics/SVG/1.1/DTD/svg11.dtd">
<svg version="1.1" id="Capa_1" xmlns="http://www.w3.org/2000/svg" xmlns:xlink="http://www.w3.org/1999/xlink" x="0px" y="0px"
	 width="23px" height="20px" viewBox="-0.5 1 23 20" enable-background="new -0.5 1 23 20" xml:space="preserve">
<g>
	<path fill="#FDC22D" stroke="#FDC22D" stroke-miterlimit="10" d="M20.223,3.264c-1.152-1.132-2.677-1.75-4.305-1.75
		s-3.158,0.623-4.31,1.755L11.007,3.86l-0.611-0.6C9.244,2.128,7.71,1.5,6.082,1.5c-1.623,0-3.153,0.623-4.3,1.75
		C0.63,4.382-0.005,5.885,0,7.484c0,1.599,0.639,3.097,1.791,4.229l8.759,8.604c0.121,0.119,0.285,0.183,0.443,0.183
		c0.159,0,0.322-0.06,0.443-0.179l8.778-8.591C21.366,10.599,22,9.096,22,7.497C22.005,5.898,21.375,4.396,20.223,3.264z
		 M19.328,10.856l-8.335,8.155l-8.316-8.169C1.763,9.944,1.259,8.753,1.259,7.484s0.499-2.46,1.413-3.354
		c0.909-0.893,2.122-1.388,3.409-1.388c1.292,0,2.509,0.495,3.423,1.393l1.054,1.035c0.247,0.243,0.644,0.243,0.891,0l1.045-1.026
		c0.914-0.898,2.131-1.393,3.419-1.393s2.5,0.495,3.414,1.388c0.914,0.898,1.413,2.089,1.413,3.358
		C20.745,8.766,20.242,9.958,19.328,10.856z"/>
</g>
</svg>
